<svg xmlns="http://www.w3.org/2000/svg" viewBox="0 0 100 100">
<defs>
<linearGradient id="bg" x1="0" y1="0" x2="0" y2="1">
<stop offset="0%" stop-color="#fff0f5"/>
<stop offset="100%" stop-color="#ffe4ec"/>
</linearGradient>
<radialGradient id="bowL" cx="35%" cy="35%">
<stop offset="0%" stop-color="#ffafc7"/>
<stop offset="100%" stop-color="#ff6b9d"/>
</radialGradient>
<radialGradient id="bowR" cx="65%" cy="35%">
<stop offset="0%" stop-color="#ffafc7"/>
<stop offset="100%" stop-color="#ff6b9d"/>
</radialGradient>
</defs>
<rect width="100" height="100" rx="22" fill="url(#bg)"/>
<!-- Tails -->
<path d="M44 56 L30 84 L36 84 L38 78 L42 80 L46 60 Z" fill="#ff6b9d"/>
<path d="M56 56 L70 84 L64 84 L62 78 L58 80 L54 60 Z" fill="#ff6b9d"/>
<!-- Left loop -->
<ellipse cx="32" cy="48" rx="18" ry="16" fill="url(#bowL)"/>
<ellipse cx="36" cy="48" rx="6" ry="8" fill="#dc5f91"/>
<!-- Right loop -->
<ellipse cx="68" cy="48" rx="18" ry="16" fill="url(#bowR)"/>
<ellipse cx="64" cy="48" rx="6" ry="8" fill="#dc5f91"/>
<!-- Center knot -->
<rect x="44" y="40" width="12" height="18" rx="3" fill="#dc5f91"/>
<rect x="46" y="42" width="4" height="14" rx="2" fill="#ff8ab8"/>
<!-- Sparkles -->
<g fill="white">
<circle cx="15" cy="20" r="1.5"/>
<circle cx="85" cy="22" r="1.2"/>
<circle cx="14" cy="80" r="1.2"/>
<circle cx="86" cy="78" r="1.5"/>
</g>
</svg>