<svg xmlns="http://www.w3.org/2000/svg" viewBox="0 0 120 120">
  <defs>
    <radialGradient id="b" cx="40%" cy="35%">
      <stop offset="0%" stop-color="#ffe0eb"/>
      <stop offset="60%" stop-color="#ffb3d1"/>
      <stop offset="100%" stop-color="#ff8ab8"/>
    </radialGradient>
  </defs>
  <rect width="120" height="120" rx="26" fill="#fff0f5"/>
  <path d="M 60 18 C 36 18, 25 38, 25 56 L 25 92 C 25 96, 28 98, 32 95 C 35 92, 39 92, 42 95 C 45 98, 49 98, 52 95 C 55 92, 59 92, 62 95 C 65 98, 69 98, 72 95 C 75 92, 79 92, 82 95 C 85 98, 88 98, 92 95 C 95 98, 95 96, 95 92 L 95 56 C 95 38, 84 18, 60 18 Z" fill="url(#b)"/>
  <circle cx="48" cy="52" r="4" fill="#3d2933"/>
  <circle cx="72" cy="52" r="4" fill="#3d2933"/>
  <circle cx="46.8" cy="50.5" r="1.4" fill="white"/>
  <circle cx="70.8" cy="50.5" r="1.4" fill="white"/>
  <path d="M 53 64 Q 60 70, 67 64" stroke="#3d2933" stroke-width="2.5" fill="none" stroke-linecap="round"/>
</svg>